<svg width="106.439990234375px" height="114.839990234375px" xmlns="http://www.w3.org/2000/svg" viewBox="196.7800048828125 17.580004882812503 106.439990234375 114.839990234375" style="background: rgb(18, 16, 16) none repeat scroll 0% 0%;" preserveAspectRatio="xMidYMid"><defs><linearGradient id="editing-gradient-gradient" x1="0.6461858523613686" x2="0.35381414763863145" y1="0.9781523779815177" y2="0.021847622018482338" gradientUnits="objectBoundingBox"><stop offset="0" stop-color="#ffe0e0"></stop><stop offset="1" stop-color="#a001b4"></stop></linearGradient></defs><g><g transform="translate(218.70205295085907, 98.52250099182129)"><path d="M3.90 0.98L3.90 0.98L3.90 0.98Q3.48 1.40 3.35 1.34L3.35 1.34L3.35 1.34Q3.23 1.28 3.35 1.07L3.35 1.07L3.35 1.07Q3.48 0.85 3.54 0.73L3.54 0.73L3.54 0.73Q4.03 0.18 4.30-0.09L4.30-0.09L4.30-0.09Q4.58-0.37 4.94-0.67L4.94-0.67L4.94-0.67Q3.48-2.62 2.81-4.85L2.81-4.85L2.81-4.85Q2.13-7.08 2.01-9.46L2.01-9.46L2.01-9.46Q1.89-11.83 2.23-14.27L2.23-14.27L2.23-14.27Q2.56-16.71 3.11-19.03L3.11-19.03L3.11-19.03Q4.21-23.61 5.64-27.97L5.64-27.97L5.64-27.97Q7.08-32.33 8.05-36.36L8.05-36.36L8.05-36.36Q6.10-35.99 4.54-35.38L4.54-35.38L4.54-35.38Q2.99-34.77 2.50-34.04L2.50-34.04L2.50-34.04Q2.32-33.73 2.17-33.79L2.17-33.79L2.17-33.79Q2.01-33.85 2.26-34.34L2.26-34.34L2.26-34.34Q2.75-35.38 4.03-36.20L4.03-36.20L4.03-36.20Q5.31-37.03 6.95-37.58L6.95-37.58L6.95-37.58Q8.60-38.13 10.52-38.43L10.52-38.43L10.52-38.43Q12.44-38.73 14.21-38.67L14.21-38.67L14.21-38.67Q18.18-38.55 20.83-37.15L20.83-37.15L20.83-37.15Q23.48-35.75 23.55-33.00L23.55-33.00L23.55-33.00Q23.55-31.29 22.36-29.59L22.36-29.59L22.36-29.59Q21.17-27.88 19.49-26.38L19.49-26.38L19.49-26.38Q17.81-24.89 15.92-23.70L15.92-23.70L15.92-23.70Q14.03-22.51 12.69-21.84L12.69-21.84L12.44-20.98L12.44-20.98Q13.36-21.78 14.88-22.27L14.88-22.27L14.88-22.27Q16.41-22.75 18.09-22.75L18.09-22.75L18.09-22.75Q19.76-22.75 21.38-22.17L21.38-22.17L21.38-22.17Q23.00-21.59 24.22-20.31L24.22-20.31L24.22-20.31Q25.86-18.48 26.32-16.13L26.32-16.13L26.32-16.13Q26.78-13.79 26.05-11.53L26.05-11.53L26.05-11.53Q25.38-9.27 23.79-7.84L23.79-7.84L23.79-7.84Q22.20-6.41 20.56-5.67L20.56-5.67L20.56-5.67Q20.37-5.55 19.89-5.40L19.89-5.40L19.89-5.40Q19.40-5.25 19.28-5.43L19.28-5.43L19.28-5.43Q19.21-5.55 19.58-5.89L19.58-5.89L19.58-5.89Q19.95-6.22 20.13-6.34L20.13-6.34L20.13-6.34Q21.78-7.44 22.94-9.33L22.94-9.33L22.94-9.33Q24.09-11.22 24.37-13.27L24.37-13.27L24.37-13.27Q24.64-15.31 23.91-17.20L23.91-17.20L23.91-17.20Q23.18-19.09 21.04-20.13L21.04-20.13L21.04-20.13Q20.19-20.56 18.79-20.77L18.79-20.77L18.79-20.77Q17.38-20.98 15.98-20.89L15.98-20.89L15.98-20.89Q14.58-20.80 13.39-20.25L13.39-20.25L13.39-20.25Q12.20-19.70 11.71-18.54L11.71-18.54L11.71-18.54Q12.81-19.21 14.21-19.58L14.21-19.58L14.21-19.58Q15.62-19.95 17.05-19.92L17.05-19.92L17.05-19.92Q18.48-19.89 19.76-19.37L19.76-19.37L19.76-19.37Q21.04-18.85 21.90-17.81L21.90-17.81L21.90-17.81Q22.94-16.53 23.09-15.13L23.09-15.13L23.09-15.13Q23.24-13.72 22.78-12.38L22.78-12.38L22.78-12.38Q22.33-11.04 21.32-9.88L21.32-9.88L21.32-9.88Q20.31-8.72 19.03-7.93L19.03-7.93L19.03-7.93Q17.32-6.89 15.25-5.89L15.25-5.89L15.25-5.89Q13.18-4.88 11.10-3.81L11.10-3.81L11.10-3.81Q9.03-2.75 7.14-1.56L7.14-1.56L7.14-1.56Q5.25-0.37 3.90 0.98ZM11.22-16.47L11.22-16.47L11.22-16.47Q10.13-13.72 9.42-10.95L9.42-10.95L9.42-10.95Q8.72-8.17 7.87-5.86L7.87-5.86L7.87-5.86Q7.56-5.06 7.44-5.12L7.44-5.12L7.44-5.12Q7.26-5.18 7.26-5.46L7.26-5.46L7.26-5.46Q7.26-5.73 7.26-6.04L7.26-6.04L7.26-6.04Q7.44-10.67 8.60-15.22L8.60-15.22L8.60-15.22Q9.76-19.76 11.10-24.40L11.10-24.40L11.10-24.40Q11.96-27.27 12.72-30.29L12.72-30.29L12.72-30.29Q13.48-33.31 13.60-36.78L13.60-36.78L12.57-36.78L12.57-36.78Q12.63-35.14 12.47-33.52L12.47-33.52L12.47-33.52Q12.32-31.90 12.02-30.74L12.02-30.74L12.02-30.74Q11.16-27.45 9.94-23.91L9.94-23.91L9.94-23.91Q8.72-20.37 7.38-17.20L7.38-17.20L7.38-17.20Q7.32-17.08 7.11-16.62L7.11-16.62L7.11-16.62Q6.89-16.16 6.71-16.23L6.71-16.23L6.71-16.23Q6.59-16.29 6.56-16.77L6.56-16.77L6.56-16.77Q6.53-17.26 6.59-17.45L6.59-17.45L6.59-17.45Q6.65-18.18 6.86-19.28L6.86-19.28L6.86-19.28Q7.08-20.37 7.29-21.53L7.29-21.53L7.29-21.53Q7.50-22.69 7.78-23.79L7.78-23.79L7.78-23.79Q8.05-24.89 8.30-25.68L8.30-25.68L8.30-25.68Q8.36-25.99 8.63-27.08L8.63-27.08L8.63-27.08Q8.91-28.18 9.21-29.74L9.21-29.74L9.21-29.74Q9.52-31.29 9.85-33.09L9.85-33.09L9.85-33.09Q10.19-34.89 10.43-36.60L10.43-36.60L10.43-36.60Q9.94-36.60 9.70-36.54L9.70-36.54L9.70-36.54Q9.39-34.28 8.81-31.96L8.81-31.96L8.81-31.96Q8.23-29.65 7.50-27.27L7.50-27.27L7.50-27.27Q6.77-24.89 6.04-22.54L6.04-22.54L6.04-22.54Q5.31-20.19 4.76-17.81L4.76-17.81L4.76-17.81Q4.27-15.80 4.03-13.60L4.03-13.60L4.03-13.60Q3.78-11.41 3.78-9.24L3.78-9.24L3.78-9.24Q3.78-7.08 4.15-5.00L4.15-5.00L4.15-5.00Q4.51-2.93 5.31-1.04L5.31-1.04L5.86-1.59L5.86-1.59Q5.67-2.01 5.49-2.62L5.49-2.62L5.49-2.62Q5.31-3.23 5.18-4.09L5.18-4.09L5.18-4.09Q5.06-4.76 5.03-5.79L5.03-5.79L5.03-5.79Q5.00-6.83 5.06-7.81L5.06-7.81L5.06-7.81Q5.12-8.78 5.25-9.46L5.25-9.46L5.25-9.46Q5.37-10.13 5.61-10.13L5.61-10.13L5.61-10.13Q5.67-10.13 5.76-9.82L5.76-9.82L5.76-9.82Q5.86-9.52 5.92-9.09L5.92-9.09L5.92-9.09Q5.98-8.66 6.04-8.30L6.04-8.30L6.04-8.30Q6.10-7.93 6.10-7.75L6.10-7.75L6.10-7.75Q6.16-7.20 6.22-6.53L6.22-6.53L6.22-6.53Q6.28-5.86 6.37-5.12L6.37-5.12L6.37-5.12Q6.47-4.39 6.56-3.69L6.56-3.69L6.56-3.69Q6.65-2.99 6.83-2.50L6.83-2.50L6.83-2.50Q8.23-3.78 9.82-4.79L9.82-4.79L9.82-4.79Q11.41-5.79 12.96-6.65L12.96-6.65L12.96-6.65Q14.52-7.50 15.98-8.30L15.98-8.30L15.98-8.30Q17.45-9.09 18.54-9.88L18.54-9.88L18.54-9.88Q20.43-11.16 20.98-13.15L20.98-13.15L20.98-13.15Q21.53-15.13 20.31-16.71L20.31-16.71L20.31-16.71Q19.52-17.75 18.15-18.18L18.15-18.18L18.15-18.18Q16.77-18.61 15.34-18.51L15.34-18.51L15.34-18.51Q13.91-18.42 12.75-17.87L12.75-17.87L12.75-17.87Q11.59-17.32 11.22-16.47ZM20.92-25.80L20.92-25.80L20.92-25.80Q21.04-25.74 20.65-25.16L20.65-25.16L20.65-25.16Q20.25-24.58 20.13-24.34L20.13-24.34L20.13-24.34Q22.20-24.64 23.82-25.80L23.82-25.80L23.82-25.80Q25.44-26.96 26.41-28.58L26.41-28.58L26.41-28.58Q27.39-30.20 27.63-32.12L27.63-32.12L27.63-32.12Q27.88-34.04 27.27-35.99L27.27-35.99L27.27-35.99Q26.66-37.94 25.25-39.28L25.25-39.28L25.25-39.28Q23.85-40.63 22.02-41.48L22.02-41.48L22.02-41.48Q20.19-42.33 18.06-42.70L18.06-42.70L18.06-42.70Q15.92-43.07 13.79-43.04L13.79-43.04L13.79-43.04Q11.65-43.01 9.70-42.64L9.70-42.64L9.70-42.64Q7.75-42.27 6.28-41.60L6.28-41.60L6.28-41.60Q5.98-41.48 5.95-41.48L5.95-41.48L5.95-41.48Q5.92-41.48 5.86-41.54L5.86-41.54L5.86-41.54Q5.79-41.72 6.16-41.97L6.16-41.97L6.16-41.97Q7.69-43.31 10.03-43.98L10.03-43.98L10.03-43.98Q12.38-44.65 14.98-44.65L14.98-44.65L14.98-44.65Q17.57-44.65 20.19-43.95L20.19-43.95L20.19-43.95Q22.81-43.25 24.92-41.82L24.92-41.82L24.92-41.82Q27.02-40.38 28.40-38.16L28.40-38.16L28.40-38.16Q29.77-35.93 29.89-32.94L29.89-32.94L29.89-32.94Q29.95-31.11 29.40-29.62L29.40-29.62L29.40-29.62Q28.85-28.12 27.94-26.96L27.94-26.96L27.94-26.96Q27.02-25.80 25.83-24.98L25.83-24.98L25.83-24.98Q24.64-24.16 23.36-23.61L23.36-23.61L23.36-23.61Q25.38-22.69 26.84-20.77L26.84-20.77L26.84-20.77Q28.30-18.85 28.91-16.96L28.91-16.96L28.91-16.96Q29.65-14.46 29.25-12.20L29.25-12.20L29.25-12.20Q28.85-9.94 27.91-8.11L27.91-8.11L27.91-8.11Q26.96-6.28 25.77-4.97L25.77-4.97L25.77-4.97Q24.58-3.66 23.73-3.11L23.73-3.11L23.73-3.11Q21.96-1.95 20.13-1.31L20.13-1.31L20.13-1.31Q18.30-0.67 16.53-0.34L16.53-0.34L16.53-0.34Q14.76 0 13.15 0.12L13.15 0.12L13.15 0.12Q11.53 0.24 10.25 0.30L10.25 0.30L10.25 0.30Q9.27 0.43 9.27 0.24L9.27 0.24L9.27 0.24Q9.21 0.12 9.61 0.03L9.61 0.03L9.61 0.03Q10.00-0.06 10.31-0.12L10.31-0.12L10.31-0.12Q12.69-0.55 15.01-1.28L15.01-1.28L15.01-1.28Q17.32-2.01 19.70-3.23L19.70-3.23L19.70-3.23Q20.86-3.84 22.11-4.67L22.11-4.67L22.11-4.67Q23.36-5.49 24.43-6.62L24.43-6.62L24.43-6.62Q25.50-7.75 26.26-9.15L26.26-9.15L26.26-9.15Q27.02-10.55 27.27-12.26L27.27-12.26L27.27-12.26Q27.57-14.40 27.18-16.50L27.18-16.50L27.18-16.50Q26.78-18.61 25.13-20.56L25.13-20.56L25.13-20.56Q23.55-22.45 21.81-23.12L21.81-23.12L21.81-23.12Q20.07-23.79 18.06-23.67L18.06-23.67L18.06-23.67Q17.57-23.67 17.57-23.73L17.57-23.73L17.57-23.73Q17.57-23.85 18.24-24.16L18.24-24.16L18.24-24.16Q18.91-24.46 19.09-24.58L19.09-24.58L19.09-24.58Q19.64-24.95 20.25-25.44L20.25-25.44L20.25-25.44Q20.86-25.93 20.92-25.80ZM21.66-32.76L21.66-32.76L21.66-32.76Q21.66-34.71 19.58-35.59L19.58-35.59L19.58-35.59Q17.51-36.48 13.85-36.78L13.85-36.78L13.85-36.78Q14.27-34.89 14.40-33.31L14.40-33.31L14.40-33.31Q14.52-31.72 14.37-30.16L14.37-30.16L14.37-30.16Q14.21-28.61 13.82-26.93L13.82-26.93L13.82-26.93Q13.42-25.25 12.93-23.24L12.93-23.24L12.93-23.24Q14.21-23.85 15.74-25.10L15.74-25.10L15.74-25.10Q17.26-26.35 18.57-27.72L18.57-27.72L18.57-27.72Q19.89-29.10 20.77-30.47L20.77-30.47L20.77-30.47Q21.66-31.84 21.66-32.76ZM13.24-42.09L13.24-42.09L13.24-42.09Q15.31-42.21 17.96-41.63L17.96-41.63L17.96-41.63Q20.62-41.05 22.75-39.77L22.75-39.77L22.75-39.77Q23.85-39.10 24.58-38.13L24.58-38.13L24.58-38.13Q25.31-37.15 25.71-36.08L25.71-36.08L25.71-36.08Q26.11-35.01 26.17-33.92L26.17-33.92L26.17-33.92Q26.23-32.82 25.93-31.90L25.93-31.90L25.93-31.90Q25.86-31.78 25.80-31.57L25.80-31.57L25.80-31.57Q25.74-31.35 25.62-31.14L25.62-31.14L25.62-31.14Q25.50-30.93 25.38-30.77L25.38-30.77L25.38-30.77Q25.25-30.62 25.13-30.68L25.13-30.68L25.13-30.68Q24.95-30.68 24.98-31.11L24.98-31.11L24.98-31.11Q25.01-31.54 25.13-32.02L25.13-32.02L25.13-32.02Q25.44-33.73 24.86-35.01L24.86-35.01L24.86-35.01Q24.28-36.30 23.12-37.18L23.12-37.18L23.12-37.18Q21.96-38.06 20.43-38.61L20.43-38.61L20.43-38.61Q18.91-39.16 17.29-39.47L17.29-39.47L17.29-39.47Q15.68-39.77 14.15-39.80L14.15-39.80L14.15-39.80Q12.63-39.83 11.53-39.71L11.53-39.71L11.53-39.71Q10.00-39.53 8.51-39.13L8.51-39.13L8.51-39.13Q7.01-38.73 5.73-38.25L5.73-38.25L5.73-38.25Q4.45-37.76 3.54-37.21L3.54-37.21L3.54-37.21Q2.62-36.66 2.26-36.17L2.26-36.17L2.26-36.17Q1.89-35.69 1.83-35.87L1.83-35.87L1.83-35.87Q1.83-36.05 1.95-36.42L1.95-36.42L1.95-36.42Q2.38-37.64 3.54-38.64L3.54-38.64L3.54-38.64Q4.70-39.65 6.22-40.38L6.22-40.38L6.22-40.38Q7.75-41.11 9.58-41.54L9.58-41.54L9.58-41.54Q11.41-41.97 13.24-42.09ZM10.25-0.98L10.25-0.98L10.25-0.98Q8.23-0.18 7.05 0.43L7.05 0.43L7.05 0.43Q5.86 1.04 4.70 2.01L4.70 2.01L4.70 2.01Q4.58 2.07 4.45 2.26L4.45 2.26L4.45 2.26Q4.33 2.44 4.21 2.38L4.21 2.38L4.21 2.38Q4.09 2.32 4.21 2.04L4.21 2.04L4.21 2.04Q4.33 1.77 4.45 1.65L4.45 1.65L4.45 1.65Q5.06 0.79 6.04-0.03L6.04-0.03L6.04-0.03Q7.01-0.85 8.78-1.59L8.78-1.59L8.78-1.59Q9.39-1.83 10.16-2.10L10.16-2.10L10.16-2.10Q10.92-2.38 11.62-2.56L11.62-2.56L11.62-2.56Q12.32-2.75 12.78-2.81L12.78-2.81L12.78-2.81Q13.24-2.87 13.36-2.68L13.36-2.68L13.36-2.68Q13.42-2.56 12.99-2.32L12.99-2.32L12.99-2.32Q12.57-2.07 12.02-1.80L12.02-1.80L12.02-1.80Q11.47-1.52 10.95-1.28L10.95-1.28L10.95-1.28Q10.43-1.04 10.25-0.98ZM34.77 0.98L34.77 0.98L34.77 0.98Q34.34 1.40 34.22 1.34L34.22 1.34L34.22 1.34Q34.10 1.28 34.22 1.07L34.22 1.07L34.22 1.07Q34.34 0.85 34.40 0.73L34.40 0.73L34.40 0.73Q34.89 0.18 35.17-0.09L35.17-0.09L35.17-0.09Q35.44-0.37 35.81-0.67L35.81-0.67L35.81-0.67Q34.34-2.62 33.67-4.85L33.67-4.85L33.67-4.85Q33.00-7.08 32.88-9.46L32.88-9.46L32.88-9.46Q32.76-11.83 33.09-14.27L33.09-14.27L33.09-14.27Q33.43-16.71 33.98-19.03L33.98-19.03L33.98-19.03Q35.08-23.61 36.51-27.97L36.51-27.97L36.51-27.97Q37.94-32.33 38.92-36.36L38.92-36.36L38.92-36.36Q36.97-35.99 35.41-35.38L35.41-35.38L35.41-35.38Q33.85-34.77 33.37-34.04L33.37-34.04L33.37-34.04Q33.18-33.73 33.03-33.79L33.03-33.79L33.03-33.79Q32.88-33.85 33.12-34.34L33.12-34.34L33.12-34.34Q33.61-35.38 34.89-36.20L34.89-36.20L34.89-36.20Q36.17-37.03 37.82-37.58L37.82-37.58L37.82-37.58Q39.47-38.13 41.39-38.43L41.39-38.43L41.39-38.43Q43.31-38.73 45.08-38.67L45.08-38.67L45.08-38.67Q49.04-38.55 51.70-37.15L51.70-37.15L51.70-37.15Q54.35-35.75 54.41-33.00L54.41-33.00L54.41-33.00Q54.41-31.29 53.22-29.59L53.22-29.59L53.22-29.59Q52.03-27.88 50.36-26.38L50.36-26.38L50.36-26.38Q48.68-24.89 46.79-23.70L46.79-23.70L46.79-23.70Q44.90-22.51 43.55-21.84L43.55-21.84L43.31-20.98L43.31-20.98Q44.23-21.78 45.75-22.27L45.75-22.27L45.75-22.27Q47.27-22.75 48.95-22.75L48.95-22.75L48.95-22.75Q50.63-22.75 52.25-22.17L52.25-22.17L52.25-22.17Q53.86-21.59 55.08-20.31L55.08-20.31L55.08-20.31Q56.73-18.48 57.19-16.13L57.19-16.13L57.19-16.13Q57.64-13.79 56.91-11.53L56.91-11.53L56.91-11.53Q56.24-9.27 54.66-7.84L54.66-7.84L54.66-7.84Q53.07-6.41 51.42-5.67L51.42-5.67L51.42-5.67Q51.24-5.55 50.75-5.40L50.75-5.40L50.75-5.40Q50.26-5.25 50.14-5.43L50.14-5.43L50.14-5.43Q50.08-5.55 50.45-5.89L50.45-5.89L50.45-5.89Q50.81-6.22 51.00-6.34L51.00-6.34L51.00-6.34Q52.64-7.44 53.80-9.33L53.80-9.33L53.80-9.33Q54.96-11.22 55.24-13.27L55.24-13.27L55.24-13.27Q55.51-15.31 54.78-17.20L54.78-17.20L54.78-17.20Q54.05-19.09 51.91-20.13L51.91-20.13L51.91-20.13Q51.06-20.56 49.65-20.77L49.65-20.77L49.65-20.77Q48.25-20.98 46.85-20.89L46.85-20.89L46.85-20.89Q45.45-20.80 44.26-20.25L44.26-20.25L44.26-20.25Q43.07-19.70 42.58-18.54L42.58-18.54L42.58-18.54Q43.68-19.21 45.08-19.58L45.08-19.58L45.08-19.58Q46.48-19.95 47.92-19.92L47.92-19.92L47.92-19.92Q49.35-19.89 50.63-19.37L50.63-19.37L50.63-19.37Q51.91-18.85 52.77-17.81L52.77-17.81L52.77-17.81Q53.80-16.53 53.95-15.13L53.95-15.13L53.95-15.13Q54.11-13.72 53.65-12.38L53.65-12.38L53.65-12.38Q53.19-11.04 52.19-9.88L52.19-9.88L52.19-9.88Q51.18-8.72 49.90-7.93L49.90-7.93L49.90-7.93Q48.19-6.89 46.12-5.89L46.12-5.89L46.12-5.89Q44.04-4.88 41.97-3.81L41.97-3.81L41.97-3.81Q39.89-2.75 38.00-1.56L38.00-1.56L38.00-1.56Q36.11-0.37 34.77 0.98ZM42.09-16.47L42.09-16.47L42.09-16.47Q40.99-13.72 40.29-10.95L40.29-10.95L40.29-10.95Q39.59-8.17 38.73-5.86L38.73-5.86L38.73-5.86Q38.43-5.06 38.31-5.12L38.31-5.12L38.31-5.12Q38.13-5.18 38.13-5.46L38.13-5.46L38.13-5.46Q38.13-5.73 38.13-6.04L38.13-6.04L38.13-6.04Q38.31-10.67 39.47-15.22L39.47-15.22L39.47-15.22Q40.63-19.76 41.97-24.40L41.97-24.40L41.97-24.40Q42.82-27.27 43.58-30.29L43.58-30.29L43.58-30.29Q44.35-33.31 44.47-36.78L44.47-36.78L43.43-36.78L43.43-36.78Q43.49-35.14 43.34-33.52L43.34-33.52L43.34-33.52Q43.19-31.90 42.88-30.74L42.88-30.74L42.88-30.74Q42.03-27.45 40.81-23.91L40.81-23.91L40.81-23.91Q39.59-20.37 38.25-17.20L38.25-17.20L38.25-17.20Q38.19-17.08 37.97-16.62L37.97-16.62L37.97-16.62Q37.76-16.16 37.58-16.23L37.58-16.23L37.58-16.23Q37.45-16.29 37.42-16.77L37.42-16.77L37.42-16.77Q37.39-17.26 37.45-17.45L37.45-17.45L37.45-17.45Q37.52-18.18 37.73-19.28L37.73-19.28L37.73-19.28Q37.94-20.37 38.16-21.53L38.16-21.53L38.16-21.53Q38.37-22.69 38.64-23.79L38.64-23.79L38.64-23.79Q38.92-24.89 39.16-25.68L39.16-25.68L39.16-25.68Q39.22-25.99 39.50-27.08L39.50-27.08L39.50-27.08Q39.77-28.18 40.08-29.74L40.08-29.74L40.08-29.74Q40.38-31.29 40.72-33.09L40.72-33.09L40.72-33.09Q41.05-34.89 41.30-36.60L41.30-36.60L41.30-36.60Q40.81-36.60 40.56-36.54L40.56-36.54L40.56-36.54Q40.26-34.28 39.68-31.96L39.68-31.96L39.68-31.96Q39.10-29.65 38.37-27.27L38.37-27.27L38.37-27.27Q37.64-24.89 36.91-22.54L36.91-22.54L36.91-22.54Q36.17-20.19 35.62-17.81L35.62-17.81L35.62-17.81Q35.14-15.80 34.89-13.60L34.89-13.60L34.89-13.60Q34.65-11.41 34.65-9.24L34.65-9.24L34.65-9.24Q34.65-7.08 35.01-5.00L35.01-5.00L35.01-5.00Q35.38-2.93 36.17-1.04L36.17-1.04L36.72-1.59L36.72-1.59Q36.54-2.01 36.36-2.62L36.36-2.62L36.36-2.62Q36.17-3.23 36.05-4.09L36.05-4.09L36.05-4.09Q35.93-4.76 35.90-5.79L35.90-5.79L35.90-5.79Q35.87-6.83 35.93-7.81L35.93-7.81L35.93-7.81Q35.99-8.78 36.11-9.46L36.11-9.46L36.11-9.46Q36.23-10.13 36.48-10.13L36.48-10.13L36.48-10.13Q36.54-10.13 36.63-9.82L36.63-9.82L36.63-9.82Q36.72-9.52 36.78-9.09L36.78-9.09L36.78-9.09Q36.84-8.66 36.91-8.30L36.91-8.30L36.91-8.30Q36.97-7.93 36.97-7.75L36.97-7.75L36.97-7.75Q37.03-7.20 37.09-6.53L37.09-6.53L37.09-6.53Q37.15-5.86 37.24-5.12L37.24-5.12L37.24-5.12Q37.33-4.39 37.42-3.69L37.42-3.69L37.42-3.69Q37.52-2.99 37.70-2.50L37.70-2.50L37.70-2.50Q39.10-3.78 40.69-4.79L40.69-4.79L40.69-4.79Q42.27-5.79 43.83-6.65L43.83-6.65L43.83-6.65Q45.38-7.50 46.85-8.30L46.85-8.30L46.85-8.30Q48.31-9.09 49.41-9.88L49.41-9.88L49.41-9.88Q51.30-11.16 51.85-13.15L51.85-13.15L51.85-13.15Q52.40-15.13 51.18-16.71L51.18-16.71L51.18-16.71Q50.39-17.75 49.01-18.18L49.01-18.18L49.01-18.18Q47.64-18.61 46.21-18.51L46.21-18.51L46.21-18.51Q44.77-18.42 43.62-17.87L43.62-17.87L43.62-17.87Q42.46-17.32 42.09-16.47ZM51.79-25.80L51.79-25.80L51.79-25.80Q51.91-25.74 51.51-25.16L51.51-25.16L51.51-25.16Q51.12-24.58 51.00-24.34L51.00-24.34L51.00-24.34Q53.07-24.64 54.69-25.80L54.69-25.80L54.69-25.80Q56.30-26.96 57.28-28.58L57.28-28.58L57.28-28.58Q58.25-30.20 58.50-32.12L58.50-32.12L58.50-32.12Q58.74-34.04 58.13-35.99L58.13-35.99L58.13-35.99Q57.52-37.94 56.12-39.28L56.12-39.28L56.12-39.28Q54.72-40.63 52.89-41.48L52.89-41.48L52.89-41.48Q51.06-42.33 48.92-42.70L48.92-42.70L48.92-42.70Q46.79-43.07 44.65-43.04L44.65-43.04L44.65-43.04Q42.52-43.01 40.56-42.64L40.56-42.64L40.56-42.64Q38.61-42.27 37.15-41.60L37.15-41.60L37.15-41.60Q36.84-41.48 36.81-41.48L36.81-41.48L36.81-41.48Q36.78-41.48 36.72-41.54L36.72-41.54L36.72-41.54Q36.66-41.72 37.03-41.97L37.03-41.97L37.03-41.97Q38.55-43.31 40.90-43.98L40.90-43.98L40.90-43.98Q43.25-44.65 45.84-44.65L45.84-44.65L45.84-44.65Q48.43-44.65 51.06-43.95L51.06-43.95L51.06-43.95Q53.68-43.25 55.78-41.82L55.78-41.82L55.78-41.82Q57.89-40.38 59.26-38.16L59.26-38.16L59.26-38.16Q60.63-35.93 60.76-32.94L60.76-32.94L60.76-32.94Q60.82-31.11 60.27-29.62L60.27-29.62L60.27-29.62Q59.72-28.12 58.80-26.96L58.80-26.96L58.80-26.96Q57.89-25.80 56.70-24.98L56.70-24.98L56.70-24.98Q55.51-24.16 54.23-23.61L54.23-23.61L54.23-23.61Q56.24-22.69 57.71-20.77L57.71-20.77L57.71-20.77Q59.17-18.85 59.78-16.96L59.78-16.96L59.78-16.96Q60.51-14.46 60.12-12.20L60.12-12.20L60.12-12.20Q59.72-9.94 58.77-8.11L58.77-8.11L58.77-8.11Q57.83-6.28 56.64-4.97L56.64-4.97L56.64-4.97Q55.45-3.66 54.59-3.11L54.59-3.11L54.59-3.11Q52.83-1.95 51.00-1.31L51.00-1.31L51.00-1.31Q49.17-0.67 47.40-0.34L47.40-0.34L47.40-0.34Q45.63 0 44.01 0.12L44.01 0.12L44.01 0.12Q42.39 0.24 41.11 0.30L41.11 0.30L41.11 0.30Q40.14 0.43 40.14 0.24L40.14 0.24L40.14 0.24Q40.08 0.12 40.47 0.03L40.47 0.03L40.47 0.03Q40.87-0.06 41.17-0.12L41.17-0.12L41.17-0.12Q43.55-0.55 45.87-1.28L45.87-1.28L45.87-1.28Q48.19-2.01 50.57-3.23L50.57-3.23L50.57-3.23Q51.73-3.84 52.98-4.67L52.98-4.67L52.98-4.67Q54.23-5.49 55.30-6.62L55.30-6.62L55.30-6.62Q56.36-7.75 57.13-9.15L57.13-9.15L57.13-9.15Q57.89-10.55 58.13-12.26L58.13-12.26L58.13-12.26Q58.44-14.40 58.04-16.50L58.04-16.50L58.04-16.50Q57.64-18.61 56.00-20.56L56.00-20.56L56.00-20.56Q54.41-22.45 52.67-23.12L52.67-23.12L52.67-23.12Q50.94-23.79 48.92-23.67L48.92-23.67L48.92-23.67Q48.43-23.67 48.43-23.73L48.43-23.73L48.43-23.73Q48.43-23.85 49.11-24.16L49.11-24.16L49.11-24.16Q49.78-24.46 49.96-24.58L49.96-24.58L49.96-24.58Q50.51-24.95 51.12-25.44L51.12-25.44L51.12-25.44Q51.73-25.93 51.79-25.80ZM52.52-32.76L52.52-32.76L52.52-32.76Q52.52-34.71 50.45-35.59L50.45-35.59L50.45-35.59Q48.37-36.48 44.71-36.78L44.71-36.78L44.71-36.78Q45.14-34.89 45.26-33.31L45.26-33.31L45.26-33.31Q45.38-31.72 45.23-30.16L45.23-30.16L45.23-30.16Q45.08-28.61 44.68-26.93L44.68-26.93L44.68-26.93Q44.29-25.25 43.80-23.24L43.80-23.24L43.80-23.24Q45.08-23.85 46.60-25.10L46.60-25.10L46.60-25.10Q48.13-26.35 49.44-27.72L49.44-27.72L49.44-27.72Q50.75-29.10 51.64-30.47L51.64-30.47L51.64-30.47Q52.52-31.84 52.52-32.76ZM44.10-42.09L44.10-42.09L44.10-42.09Q46.18-42.21 48.83-41.63L48.83-41.63L48.83-41.63Q51.48-41.05 53.62-39.77L53.62-39.77L53.62-39.77Q54.72-39.10 55.45-38.13L55.45-38.13L55.45-38.13Q56.18-37.15 56.58-36.08L56.58-36.08L56.58-36.08Q56.97-35.01 57.03-33.92L57.03-33.92L57.03-33.92Q57.10-32.82 56.79-31.90L56.79-31.90L56.79-31.90Q56.73-31.78 56.67-31.57L56.67-31.57L56.67-31.57Q56.61-31.35 56.49-31.14L56.49-31.14L56.49-31.14Q56.36-30.93 56.24-30.77L56.24-30.77L56.24-30.77Q56.12-30.62 56.00-30.68L56.00-30.68L56.00-30.68Q55.81-30.68 55.85-31.11L55.85-31.11L55.85-31.11Q55.88-31.54 56.00-32.02L56.00-32.02L56.00-32.02Q56.30-33.73 55.72-35.01L55.72-35.01L55.72-35.01Q55.14-36.30 53.98-37.18L53.98-37.18L53.98-37.18Q52.83-38.06 51.30-38.61L51.30-38.61L51.30-38.61Q49.78-39.16 48.16-39.47L48.16-39.47L48.16-39.47Q46.54-39.77 45.02-39.80L45.02-39.80L45.02-39.80Q43.49-39.83 42.39-39.71L42.39-39.71L42.39-39.71Q40.87-39.53 39.38-39.13L39.38-39.13L39.38-39.13Q37.88-38.73 36.60-38.25L36.60-38.25L36.60-38.25Q35.32-37.76 34.40-37.21L34.40-37.21L34.40-37.21Q33.49-36.66 33.12-36.17L33.12-36.17L33.12-36.17Q32.76-35.69 32.70-35.87L32.70-35.87L32.70-35.87Q32.70-36.05 32.82-36.42L32.82-36.42L32.82-36.42Q33.24-37.64 34.40-38.64L34.40-38.64L34.40-38.64Q35.56-39.65 37.09-40.38L37.09-40.38L37.09-40.38Q38.61-41.11 40.44-41.54L40.44-41.54L40.44-41.54Q42.27-41.97 44.10-42.09ZM41.11-0.98L41.11-0.98L41.11-0.98Q39.10-0.18 37.91 0.43L37.91 0.43L37.91 0.43Q36.72 1.04 35.56 2.01L35.56 2.01L35.56 2.01Q35.44 2.07 35.32 2.26L35.32 2.26L35.32 2.26Q35.20 2.44 35.08 2.38L35.08 2.38L35.08 2.38Q34.95 2.32 35.08 2.04L35.08 2.04L35.08 2.04Q35.20 1.77 35.32 1.65L35.32 1.65L35.32 1.65Q35.93 0.79 36.91-0.03L36.91-0.03L36.91-0.03Q37.88-0.85 39.65-1.59L39.65-1.59L39.65-1.59Q40.26-1.83 41.02-2.10L41.02-2.10L41.02-2.10Q41.78-2.38 42.49-2.56L42.49-2.56L42.49-2.56Q43.19-2.75 43.65-2.81L43.65-2.81L43.65-2.81Q44.10-2.87 44.23-2.68L44.23-2.68L44.23-2.68Q44.29-2.56 43.86-2.32L43.86-2.32L43.86-2.32Q43.43-2.07 42.88-1.80L42.88-1.80L42.88-1.80Q42.33-1.52 41.82-1.28L41.82-1.28L41.82-1.28Q41.30-1.04 41.11-0.98Z" fill="url(#editing-gradient-gradient)"></path></g></g><style>text {
  font-size: 64px;
  font-family: Arial Black;
  dominant-baseline: central;
  text-anchor: middle;
}</style></svg>